<?xml version="1.0" encoding="iso-8859-1"?>
<!-- Generator: Adobe Illustrator 16.0.0, SVG Export Plug-In . SVG Version: 6.00 Build 0)  -->
<!DOCTYPE svg PUBLIC "-//W3C//DTD SVG 1.1//EN" "http://www.w3.org/Graphics/SVG/1.1/DTD/svg11.dtd">
<svg version="1.1" id="Capa_1" xmlns="http://www.w3.org/2000/svg" xmlns:xlink="http://www.w3.org/1999/xlink" x="0px" y="0px"
	 width="396.292px" height="396.291px" viewBox="0 0 396.292 396.291" style="enable-background:new 0 0 396.292 396.291;"
	 xml:space="preserve">
<g>
	<g>
		<g id="Layer_5_86_">
			<path d="M334.86,69.735c-10.052,0-18.202,8.149-18.202,18.202v79.334c0,4.365-3.923,7.906-8.764,7.906
				c-4.842,0-8.765-3.541-8.765-7.906V54.766c-0.015-12.071-9.802-21.851-21.87-21.851c-12.083,0-21.875,9.793-21.875,21.873
				c0,0,0.06,112.416,0,112.443v0.039c0,4.365-3.698,7.906-8.265,7.906c-4.563,0-8.265-3.541-8.265-7.906V23.688
				C238.843,10.604,228.234,0,215.149,0c-13.097,0-23.711,10.614-23.711,23.711c0,0-0.024,142.38-0.024,144.031
				c-0.246,4.146-3.676,7.436-7.884,7.436c-4.367,0-7.907-3.541-7.907-7.906V44.415c0-13.096-10.614-23.71-23.708-23.71
				c-13.096,0-23.711,10.614-23.711,23.71c-0.219,171.794-0.218,171.794-0.234,186.019c0,5.369,0.104,16.905-2.484,18.836
				c-2.149,1.604-5.012-0.389-8.477-5.066c-7.863-10.617-19.216-27.481-27.484-38.752c-7.838-10.686-20.218-22.288-34.271-14.602
				c-13.364,7.311-15.628,26.043-6.591,38.313c0,0,58.548,85.917,78.556,115.788c11.712,17.485,14.854,23.026,18.892,28.771
				c15.388,21.886,23.975,22.57,48.791,22.57c26.771,0,102.836,0,102.836,0c55.323,0,55.323-65.667,55.323-93.693V97.943
				C353.061,77.884,344.913,69.735,334.86,69.735z"/>
		</g>
	</g>
</g>
<g>
</g>
<g>
</g>
<g>
</g>
<g>
</g>
<g>
</g>
<g>
</g>
<g>
</g>
<g>
</g>
<g>
</g>
<g>
</g>
<g>
</g>
<g>
</g>
<g>
</g>
<g>
</g>
<g>
</g>
</svg>
