<?xml version="1.0" encoding="iso-8859-1"?>
<!-- Generator: Adobe Illustrator 16.0.0, SVG Export Plug-In . SVG Version: 6.00 Build 0)  -->
<!DOCTYPE svg PUBLIC "-//W3C//DTD SVG 1.1//EN" "http://www.w3.org/Graphics/SVG/1.1/DTD/svg11.dtd">
<svg version="1.1" id="Capa_1" xmlns="http://www.w3.org/2000/svg" xmlns:xlink="http://www.w3.org/1999/xlink" x="0px" y="0px"
	 width="401.35px" height="401.35px" viewBox="0 0 401.35 401.35" style="enable-background:new 0 0 401.35 401.35;"
	 xml:space="preserve">
<g>
	<g>
		<path d="M127.608,261.314c6.178-11.188,8.82-23.51,7.641-35.635l26.801-2.729c0.179-17.879,1.624-34.375,1.624-34.375
			l-35.234,14.814c-3.723-6.855-8.711-12.847-14.824-17.809c-11.586-9.407-26.662-14.588-42.451-14.588
			c-8.119,0-16.15,1.349-23.873,4.01c-17.021,5.865-30.998,17.433-39.357,32.571c-8.594,15.563-10.271,33.004-4.721,49.111
			c3.576,10.382,10.045,19.588,18.709,26.623c11.586,9.407,26.662,14.587,42.453,14.587c8.119,0,16.152-1.349,23.873-4.009
			C105.268,288.023,119.244,276.455,127.608,261.314z M105.721,249.229c-5.363,9.712-14.461,17.177-25.615,21.021
			c-5.143,1.771-10.463,2.67-15.813,2.67c-9.998,0-19.449-3.203-26.613-9.019c-5.105-4.147-8.75-9.314-10.832-15.357
			c-3.215-9.334-2.16-19.593,2.971-28.883c5.363-9.712,14.461-17.178,25.617-21.021c5.143-1.772,10.461-2.67,15.811-2.67
			c9.996,0,19.447,3.203,26.613,9.02c5.104,4.144,8.748,9.312,10.83,15.358C111.906,229.681,110.853,239.939,105.721,249.229z"/>
		<path d="M400.317,130.792c-1.438-1.876-3.998-2.485-6.127-1.465c-32.264,15.459-97.024,42.234-154.863,47.868l5.494,28.821
			l-3.918,12.535c0,0,4.291-0.518,4.515-0.546c71.221-9.557,127.865-49.561,154.729-80.915
			C401.686,135.294,401.756,132.667,400.317,130.792z"/>
		<path d="M197.956,272.907l27.311-61.111c0.42-0.938,0.539-1.98,0.346-2.988c-13.045-67.545,28.104-163.515,46.4-201.642
			c1.023-2.132,0.412-4.688-1.463-6.129c-1.875-1.439-4.504-1.369-6.299,0.169c-32.488,27.839-73.344,86.474-81.57,160.102
			c-0.008,0.074-0.016,0.147-0.02,0.222l-6.992,104.569c-1.877-0.184-3.787-0.275-5.676-0.275c-10.367,0-20.447,2.663-29.961,7.916
			c-15.141,8.36-26.709,22.338-32.57,39.358c-7.953,23.082-3.898,48.497,10.578,66.326c7.031,8.663,16.236,15.133,26.621,18.711
			c6.191,2.132,12.625,3.213,19.123,3.213h0.002c10.361,0,20.451-2.67,29.986-7.936c15.14-8.362,26.708-22.34,32.572-39.358
			c7.951-23.083,3.897-48.497-10.578-66.324C210.801,281.615,204.809,276.628,197.956,272.907z M197.612,192.893
			c1.447-1.448,3.373-2.245,5.419-2.245c2.05,0,3.974,0.797,5.422,2.246c1.443,1.444,2.24,3.37,2.24,5.421
			c0,2.05-0.797,3.977-2.242,5.421c-1.446,1.447-3.37,2.245-5.42,2.245c-2.046,0-3.973-0.798-5.421-2.246
			c-1.443-1.443-2.238-3.369-2.238-5.419C195.371,196.263,196.167,194.338,197.612,192.893z M202.708,345.912
			c-3.844,11.154-11.309,20.253-21.021,25.616c-5.682,3.139-11.889,4.797-17.953,4.797c-3.734,0-7.41-0.614-10.928-1.825
			c-6.047-2.083-11.215-5.729-15.357-10.833c-9.08-11.183-11.514-27.438-6.35-42.426c3.842-11.155,11.307-20.252,21.02-25.614
			c5.682-3.139,11.887-4.797,17.949-4.797c3.734,0,7.414,0.615,10.934,1.827c6.045,2.083,11.213,5.728,15.357,10.831
			C205.436,314.67,207.869,330.926,202.708,345.912z"/>
	</g>
</g>
<g>
</g>
<g>
</g>
<g>
</g>
<g>
</g>
<g>
</g>
<g>
</g>
<g>
</g>
<g>
</g>
<g>
</g>
<g>
</g>
<g>
</g>
<g>
</g>
<g>
</g>
<g>
</g>
<g>
</g>
</svg>
