<?xml version="1.0" encoding="iso-8859-1"?>
<!-- Generator: Adobe Illustrator 16.0.0, SVG Export Plug-In . SVG Version: 6.00 Build 0)  -->
<!DOCTYPE svg PUBLIC "-//W3C//DTD SVG 1.1//EN" "http://www.w3.org/Graphics/SVG/1.1/DTD/svg11.dtd">
<svg version="1.1" id="Capa_1" xmlns="http://www.w3.org/2000/svg" xmlns:xlink="http://www.w3.org/1999/xlink" x="0px" y="0px"
	 width="33.299px" height="33.299px" viewBox="0 0 33.299 33.299" style="enable-background:new 0 0 33.299 33.299;"
	 xml:space="preserve">
<g>
	<g>
		<path d="M13.243,13.008c5.625,0,11.693-2.07,11.693-4.13c0-2.058-0.754-5.851-6.953-4.826c-5.552,0.917-13.185,0-13.421,4.826
			C4.46,10.936,7.617,13.008,13.243,13.008z M17.672,5.149c1.089-0.507,5.411-0.185,5.924,1.565
			c0.311,1.056-0.043,2.218-1.134,2.726c-1.091,0.507,0.015-1.001-0.313-2.052C21.531,5.4,16.582,5.656,17.672,5.149z"/>
		<path d="M7.445,13.593c-0.444,0.726-0.484,1.623,0.041,2.745c1.039,2.214,5.414,4.427,12.09,4.427
			c6.678,0,12.091-1.982,12.091-4.427c0-2.143-1.211-4.929-6.003-5.585c-2.051,2.443-7.938,3.728-12.421,3.728
			C11.033,14.48,9.061,14.165,7.445,13.593z M25.627,12.455c1.091-0.507,3.684-0.198,4.195,1.552
			c0.312,1.056,0.595,2.741-0.494,3.248c-1.092,0.507-0.627-1.522-0.952-2.573C27.758,12.691,24.536,12.962,25.627,12.455z"/>
		<path d="M30.066,20.202c-2.619,1.342-6.563,2.032-10.49,2.032c-6.271,0-11.473-1.944-13.202-4.88C1.75,18.438,0,20.836,0,23.324
			c0,3.365,7.455,6.095,16.65,6.095c9.194,0,16.649-2.729,16.649-6.095C33.299,22.232,32.049,21.157,30.066,20.202z M13.58,26.417
			c-6.466,0-11.156-4.166-10.604-4.842c0.552-0.675,2.809,1.622,7.111,2.759c7.429,1.962,16.121-0.062,15.998,0.49
			C25.961,25.376,20.046,26.417,13.58,26.417z"/>
	</g>
</g>
<g>
</g>
<g>
</g>
<g>
</g>
<g>
</g>
<g>
</g>
<g>
</g>
<g>
</g>
<g>
</g>
<g>
</g>
<g>
</g>
<g>
</g>
<g>
</g>
<g>
</g>
<g>
</g>
<g>
</g>
</svg>
